<?xml version="1.0" encoding="iso-8859-1"?>
<!-- Generator: Adobe Illustrator 19.0.0, SVG Export Plug-In . SVG Version: 6.00 Build 0)  -->
<svg version="1.1" id="Layer_1" xmlns="http://www.w3.org/2000/svg" xmlns:xlink="http://www.w3.org/1999/xlink" x="0px" y="0px"
	 viewBox="0 0 491.52 491.52" style="enable-background:new 0 0 491.52 491.52;" xml:space="preserve">
<g>
	<g>
		<g>
			<path fill="#BAE6FF" d="M163.84,0h-36.7c-36.229,0-65.7,29.471-65.7,65.7v16.22h102.4V0z"/>
			<rect fill="#BAE6FF" x="204.8" y="0" width="81.92" height="81.92"/>
			<path fill="#BAE6FF" d="M364.38,0h-36.7v81.92h102.4V65.7C430.08,29.471,400.609,0,364.38,0z"/>
			<path fill="#BAE6FF" d="M245.76,368.646c31.068,0,57.815-17.592,71.7-43.131c-4.874,0.942-9.81,1.761-14.95,1.946
				c-1.29,0.061-2.601,0.082-3.891,0.082c-25.293,0-49.48-9.154-65.823-24.965c-0.614-0.492-1.188-1.044-1.761-1.618
				c-9.052-9.359-24.76-14.909-40.469-14.193c-10.24,0.369-19.292,3.236-25.907,7.987
				C168.755,336.124,203.346,368.646,245.76,368.646z"/>
			<path fill="#BAE6FF" d="M258.734,270.744c0.614,0.471,1.188,1.024,1.741,1.597c9.073,9.339,24.678,14.664,40.509,14.193
				c10.22-0.369,19.251-3.215,25.866-7.967c-4.157-41.308-38.707-73.769-81.08-73.769c-31.007,0-57.713,17.51-71.639,42.967
				c4.854-0.942,9.789-1.761,14.909-1.946C215.521,245.021,241.551,254.093,258.734,270.744z"/>
			<path fill="#BAE6FF" d="M61.44,425.82c0,36.229,29.471,65.7,65.7,65.7h237.24c36.229,0,65.7-29.471,65.7-65.7V122.88H61.44V425.82z
				 M245.76,163.84c67.072,0,121.672,54.026,122.778,120.812v0.164c0.021,0.635,0.102,1.27,0.102,1.905
				c0,67.768-55.112,122.88-122.88,122.88c-67.113,0-121.754-54.108-122.778-120.996c0-0.02,0-0.041-0.021-0.082
				c0-0.594-0.082-1.188-0.082-1.802C122.88,218.952,177.992,163.84,245.76,163.84z"/>
		</g>
	</g>
</g>
<g>
</g>
<g>
</g>
<g>
</g>
<g>
</g>
<g>
</g>
<g>
</g>
<g>
</g>
<g>
</g>
<g>
</g>
<g>
</g>
<g>
</g>
<g>
</g>
<g>
</g>
<g>
</g>
<g>
</g>
</svg>
